<svg width="82" height="81" viewBox="0 0 82 81" fill="none" xmlns="http://www.w3.org/2000/svg">
<path d="M54.7691 59.2135L62.3508 74.3769C73.3312 67.3181 80.5643 55.0305 80.5643 41C80.5643 19.1264 62.8736 1.43573 41 1.43573C19.1264 1.43573 1.43573 19.1264 1.43573 41C1.43573 55.0305 8.66884 67.3181 19.6492 74.2898L27.3181 59.1264C29.671 53.8976 34.9869 50.3246 41.0871 50.3246C47.1874 50.3246 52.4161 53.9848 54.7691 59.2135Z" stroke="white" stroke-miterlimit="10"/>
<path d="M72.7211 64.6166C67.2309 57.2963 59.3007 51.9804 50.1503 49.8017L41 31.6754L48.5817 16.6863L72.7211 64.6166Z" stroke="white" stroke-miterlimit="10" stroke-linejoin="round"/>
<path d="M9.36603 64.6166C14.8562 57.2963 22.7865 51.9804 31.9368 49.8017L48.5817 16.6863H33.5055L9.36603 64.6166Z" stroke="white" stroke-miterlimit="10" stroke-linejoin="round"/>
<path d="M41 62.0022C35.8584 62.0022 31.6754 66.1852 31.6754 71.3268C31.6754 76.4684 35.8584 80.6514 41 80.6514C46.1416 80.6514 50.3246 76.4684 50.3246 71.3268C50.3246 66.1852 46.1416 62.0022 41 62.0022ZM32.634 71.3268C32.634 70.1067 32.8954 68.9738 33.3311 67.9281L37.3398 78.8213C34.5512 77.5142 32.634 74.6383 32.634 71.3268ZM41 79.6928C40.2157 79.6928 39.4313 79.6057 38.647 79.3442L41.1743 72.024L43.7015 79.0828C43.7015 79.0828 43.7015 79.1699 43.7886 79.1699C42.9172 79.5185 41.9586 79.6928 41 79.6928ZM42.1329 67.4052C42.6557 67.4052 43.0915 67.3181 43.0915 67.3181C43.5272 67.2309 43.5272 66.6209 43.0043 66.6209C43.0043 66.6209 41.61 66.7081 40.7385 66.7081C39.9542 66.7081 38.5599 66.6209 38.5599 66.6209C38.1242 66.6209 38.037 67.3181 38.4727 67.3181C38.4727 67.3181 38.9085 67.4052 39.3442 67.4052L40.6514 70.9782L38.8213 76.4684L35.7712 67.4052C36.2941 67.4052 36.7298 67.3181 36.7298 67.3181C37.1655 67.2309 37.1656 66.6209 36.6427 66.6209C36.6427 66.6209 35.2483 66.7081 34.3769 66.7081C34.2026 66.7081 34.0283 66.7081 33.854 66.7081C35.3355 64.4423 37.9499 62.9608 40.8257 62.9608C43.0043 62.9608 45.0087 63.8322 46.4902 65.1394H46.403C45.6187 65.1394 45.0087 65.8366 45.0087 66.6209C45.0087 67.3181 45.4444 67.9281 45.793 68.5381C46.1416 69.061 46.4902 69.8453 46.4902 70.8039C46.4902 71.5011 46.2287 72.3725 45.8801 73.5054L45.0087 76.2941L42.1329 67.4052ZM48.3202 67.3181C48.9303 68.5381 49.366 69.8453 49.366 71.3268C49.366 74.3769 47.7102 77.0784 45.183 78.5599L47.7102 71.1525C48.1459 69.9324 48.3202 68.9738 48.3202 68.1895C48.4074 67.8409 48.4074 67.5795 48.3202 67.3181Z" fill="white"/>
<path d="M54.7691 59.2135L62.3508 74.3769C66.3595 71.7625 69.8453 68.5381 72.7211 64.7037V64.6166C65.488 55.0305 53.9848 48.756 41 48.756C37.8627 48.756 34.8126 49.1046 31.9368 49.8017C22.7865 51.9804 14.8562 57.2963 9.36602 64.6166L9.27887 64.7037C12.1547 68.5381 15.6405 71.7625 19.6492 74.3769L27.3181 59.2135C29.671 53.9848 34.9869 50.4118 41.0871 50.4118C47.1874 50.4118 52.4161 53.9848 54.7691 59.2135Z" stroke="white" stroke-miterlimit="10"/>
</svg>
